# xmcd CD database file
# Copyright (C) 1997 Ti Kan
#
# Track frame offsets:
#  150
#  16002
#  29375
#  41997
#  52697
#  65055
#  78435
#  88497
#  104177
#  115397
#
# Disc length: 1725 seconds
#
# Revision: 1
# Processed by: cddbd v1.4b41PL1 Copyright (c) Steve Scherf et al.
# Submitted via: CDWizzard Release:4.32
#
DISCID=8806bb0a
DTITLE=Ronnie McDowell - Unchained Melody
DYEAR=1900
DGENRE=
TTITLE0=Unchained Melody
TTITLE1=Paralyzed
TTITLE2=Blue Velvet (with Bobby Vinton)
TTITLE3=It's Only Make Believe (with Conway Twitty)
TTITLE4=Burning Bridges (with Jack Scott)
TTITLE5=Cry To Me
TTITLE6=Never Too Old To Rock And Roll (with Jerry Lee Lewis)
TTITLE7=Since I Don't Have You 
TTITLE8=She's My Saturday Night Special - (with Wayne Newton)
TTITLE9=Smokey Places 
EXTD=
EXTT0=
EXTT1=
EXTT2=
EXTT3=
EXTT4=
EXTT5=
EXTT6=
EXTT7=
EXTT8=
EXTT9=
PLAYORDER=
